# xmcd CD database file
#
# Track frame offsets:
#	150
#	7058
#	22913
#	37497
#	51868
#	66541
#	78934
#	106826
#	125018
#	138946
#	157364
#	170464
#	177988
#	189293
#	206134
#
# Disc length: 2879 seconds
#
# Revision: 0
# Processed by: cddbd v1.5.2PL0 Copyright (c) Steve Scherf et al.
# Submitted via: CDex 1.51
#
DISCID=da0b3d0f
DTITLE=Robert Farrell - Sun House Fury - Part 1
DYEAR=2003
DGENRE=Blues
TTITLE0=Rain Catcher Reprise
TTITLE1=Heatseeker
TTITLE2=Haunted
TTITLE3=Blind
TTITLE4=On The Trail Of The Jessup Boys
TTITLE5=Slidewinder
TTITLE6=GTR
TTITLE7=Wooly Mammoth
TTITLE8=Pretty Lady Blues
TTITLE9=Tannhauser Gate
TTITLE10=Stronghold Of Love
TTITLE11=Wah
TTITLE12=For Her Love
TTITLE13=Industry
TTITLE14=Sun House Fury
EXTD=YEAR: 2003
EXTT0=
EXTT1=
EXTT2=
EXTT3=
EXTT4=
EXTT5=
EXTT6=
EXTT7=
EXTT8=
EXTT9=
EXTT10=
EXTT11=
EXTT12=
EXTT13=
EXTT14=
PLAYORDER=
